<?xml version="1.0" standalone="no"?>
<!DOCTYPE svg PUBLIC "-//W3C//DTD SVG 20010904//EN"
 "http://www.w3.org/TR/2001/REC-SVG-20010904/DTD/svg10.dtd">
<svg version="1.0" xmlns="http://www.w3.org/2000/svg"
 width="987.000000pt" height="208.000000pt" viewBox="0 0 987.000000 208.000000"
 preserveAspectRatio="xMidYMid meet">

<g transform="translate(0.000000,208.000000) scale(0.100000,-0.100000)"
fill="#000000" stroke="none">
<path d="M590 1971 c-19 -59 -22 -87 -18 -168 3 -88 7 -106 40 -176 48 -101
122 -175 220 -222 l73 -35 18 41 c90 212 -12 488 -219 592 -91 46 -88 46 -114
-32z"/>
<path d="M1405 2019 c-107 -40 -218 -156 -261 -273 -41 -110 -16 -366 35 -366
33 0 123 53 182 107 101 94 157 238 146 373 -5 60 -31 156 -45 172 -4 3 -30
-2 -57 -13z"/>
<path d="M4377 1550 c-104 -26 -217 -122 -263 -223 -26 -55 -29 -73 -29 -157
1 -130 26 -193 110 -276 35 -34 89 -74 121 -90 53 -26 69 -29 154 -28 74 0
108 5 153 23 81 32 168 114 209 199 31 62 33 74 33 167 -1 134 -25 195 -106
276 -85 83 -150 112 -258 116 -47 1 -103 -2 -124 -7z m245 -123 c104 -61 154
-157 146 -281 -11 -162 -126 -269 -293 -270 -97 -1 -152 22 -213 89 -57 62
-77 119 -77 215 1 111 59 205 158 255 47 24 61 26 142 23 77 -3 98 -8 137 -31z"/>
<path d="M4436 1191 l-28 -30 21 -30 c28 -39 40 -39 76 -1 l29 30 -29 30 c-16
17 -32 30 -35 30 -3 0 -19 -13 -34 -29z"/>
<path d="M5917 1553 c-9 -2 -101 -112 -203 -244 l-185 -239 -116 148 c-63 81
-147 189 -186 240 -70 91 -72 92 -114 92 l-43 0 0 -307 c0 -170 -3 -399 -7
-510 l-6 -203 51 0 52 0 1 343 c1 188 4 375 8 415 l6 73 135 -173 c157 -201
197 -248 215 -248 19 0 102 94 240 273 l120 155 6 -202 c3 -110 4 -264 1 -341
-3 -77 -2 -175 2 -218 l8 -78 45 3 45 3 -2 505 c0 384 -4 506 -13 512 -13 8
-31 9 -60 1z"/>
<path d="M2576 1541 c-8 -12 2 -999 10 -1012 3 -5 23 -9 45 -9 l39 0 0 215 0
215 113 0 c287 1 399 87 400 310 1 126 -53 213 -163 264 -40 18 -68 21 -241
24 -129 3 -199 0 -203 -7z m415 -104 c55 -27 89 -97 90 -185 1 -87 -24 -140
-83 -179 -39 -26 -48 -28 -185 -32 l-143 -3 0 212 0 211 143 -3 c112 -2 150
-7 178 -21z"/>
<path d="M3360 1041 l0 -511 45 0 45 0 0 213 0 212 158 -1 c128 -1 165 -4 202
-19 99 -41 165 -95 273 -223 38 -46 87 -97 110 -113 49 -35 169 -74 257 -83
74 -8 272 7 343 24 46 12 47 13 47 52 0 39 -1 40 -27 33 -16 -3 -108 -9 -205
-12 -160 -5 -184 -3 -245 15 -93 29 -146 66 -227 163 -72 84 -156 153 -240
196 l-48 25 30 31 c52 54 77 121 76 207 -1 125 -59 216 -173 269 -52 24 -67
26 -238 29 l-183 4 0 -511z m385 400 c75 -35 115 -102 115 -194 0 -74 -32
-135 -88 -165 -54 -30 -157 -45 -249 -36 l-73 6 0 204 0 204 128 0 c102 0 135
-4 167 -19z"/>
<path d="M6281 1170 c-98 -258 -141 -384 -134 -391 6 -6 28 -9 49 -7 l39 3 44
118 44 117 149 0 149 0 18 -42 c10 -24 30 -78 46 -120 l27 -78 37 0 c20 0 41
4 48 8 8 5 -30 118 -130 387 l-142 380 -50 3 -51 3 -143 -381z m255 75 c32
-80 55 -147 52 -150 -3 -3 -57 -4 -121 -3 l-116 3 43 110 c59 150 74 185 80
185 2 0 30 -65 62 -145z"/>
<path d="M6958 1044 c-2 -332 0 -512 7 -516 6 -4 27 -8 48 -8 l37 0 0 215 0
215 93 0 c88 0 96 -2 140 -31 61 -40 111 -110 159 -222 43 -99 88 -171 118
-187 20 -11 120 -14 120 -4 0 4 -18 26 -40 51 -25 26 -64 92 -99 166 -43 91
-72 137 -113 182 l-56 61 45 24 c56 29 108 97 128 163 44 149 -17 292 -151
358 -67 33 -67 33 -250 37 l-182 4 -4 -508z m399 390 c67 -33 103 -98 103
-185 0 -94 -27 -141 -105 -182 -33 -17 -63 -22 -172 -25 l-133 -4 0 211 0 211
128 0 c117 0 132 -2 179 -26z"/>
<path d="M7832 1541 c-11 -6 -13 -104 -10 -517 l3 -509 48 -3 47 -3 0 232 0
232 33 -7 c79 -15 141 -58 257 -177 170 -173 265 -236 399 -265 70 -14 357
-19 470 -8 l62 7 -3 41 -3 41 -265 5 c-245 5 -269 7 -320 28 -83 34 -138 79
-255 211 -94 106 -148 153 -241 207 -17 10 -15 15 26 65 133 161 251 301 298
352 29 32 50 62 47 67 -3 6 -26 10 -50 10 l-44 0 -158 -182 c-87 -101 -178
-207 -203 -237 l-45 -55 -5 226 c-3 125 -7 228 -10 231 -11 10 -66 16 -78 8z"/>
<path d="M8649 1543 c-67 -4 -67 -4 -72 -36 -2 -18 -2 -188 1 -379 l5 -348
267 0 268 0 5 38 c2 20 2 40 0 45 -2 4 -103 7 -223 7 l-219 0 -3 120 -3 120
171 0 c188 0 189 0 177 60 l-5 30 -169 0 -169 0 0 79 c0 43 -3 99 -6 124 l-7
47 224 2 224 3 3 48 3 47 -203 -2 c-112 -1 -233 -3 -269 -5z"/>
<path d="M9237 1543 c-4 -3 -7 -24 -7 -45 l0 -38 125 0 125 0 2 -467 c3 -444
4 -468 21 -471 10 -2 29 -1 43 2 l24 6 2 463 3 462 123 3 122 3 0 44 0 45
-288 0 c-159 0 -292 -3 -295 -7z"/>
<path d="M163 1509 c-24 -4 -63 -17 -88 -28 l-45 -20 15 -42 c37 -105 134
-210 238 -260 115 -54 249 -58 375 -11 40 16 47 22 44 43 -5 46 -57 134 -112
189 -112 112 -271 160 -427 129z"/>
<path d="M1710 1507 c-148 -35 -285 -156 -334 -294 l-14 -41 47 -20 c126 -55
263 -50 390 14 106 53 219 182 237 271 6 30 5 31 -52 53 -72 27 -198 34 -274
17z"/>
<path d="M354 936 c-76 -24 -165 -79 -214 -133 -51 -55 -106 -155 -96 -172 9
-15 102 -43 170 -51 131 -16 266 30 365 125 55 52 121 155 121 187 0 9 -25 23
-62 36 -73 26 -215 29 -284 8z"/>
<path d="M1467 939 c-41 -10 -97 -36 -97 -45 0 -3 11 -29 25 -57 91 -180 281
-283 474 -256 88 12 167 42 163 61 -9 42 -58 120 -104 166 -99 100 -201 143
-337 141 -47 -1 -103 -5 -124 -10z"/>
<path d="M823 685 c-88 -44 -168 -127 -215 -223 -32 -65 -33 -71 -33 -192 1
-114 3 -130 27 -182 l27 -58 38 16 c154 64 272 225 289 396 7 71 -13 184 -43
242 l-19 37 -71 -36z"/>
<path d="M1166 692 c-48 -94 -60 -245 -27 -351 37 -120 131 -228 246 -282 l60
-29 18 35 c51 101 59 243 19 357 -43 121 -143 231 -254 277 l-48 20 -14 -27z"/>
<path d="M6442 630 c-18 -16 -32 -32 -32 -36 0 -11 52 -64 62 -64 12 0 57 52
58 66 0 5 -13 22 -28 37 l-28 27 -32 -30z"/>
</g>
</svg>
