<?xml version="1.0" standalone="no"?>
<!DOCTYPE svg PUBLIC "-//W3C//DTD SVG 20010904//EN"
 "http://www.w3.org/TR/2001/REC-SVG-20010904/DTD/svg10.dtd">
<svg version="1.0" xmlns="http://www.w3.org/2000/svg"
 width="277.000000pt" height="277.000000pt" viewBox="0 0 277.000000 277.000000"
 preserveAspectRatio="xMidYMid meet">

<g transform="translate(0.000000,277.000000) scale(0.100000,-0.100000)"
fill="#000000" stroke="none">
<path d="M804 2675 c-43 -103 -54 -226 -34 -365 24 -167 168 -352 343 -440 54
-27 91 -40 96 -34 25 25 55 144 59 236 12 255 -119 488 -335 597 -46 22 -90
41 -98 41 -9 0 -23 -16 -31 -35z"/>
<path d="M1869 2687 c-166 -69 -310 -233 -354 -404 -31 -117 -11 -378 32 -425
24 -26 60 -18 148 34 233 137 355 408 301 665 -21 95 -41 148 -57 150 -8 2
-39 -8 -70 -20z"/>
<path d="M215 2010 c-22 -4 -71 -20 -108 -35 -77 -31 -76 -26 -25 -132 80
-164 235 -293 408 -338 96 -25 270 -16 364 18 76 28 88 40 79 77 -11 48 -74
155 -123 212 -113 127 -270 199 -450 204 -58 2 -123 -1 -145 -6z"/>
<path d="M2293 2010 c-63 -13 -151 -51 -215 -94 -111 -73 -228 -225 -253 -328
-7 -26 -3 -29 39 -48 82 -35 168 -53 256 -53 172 0 305 59 442 193 68 67 94
101 122 160 20 41 36 82 36 92 0 58 -274 108 -427 78z"/>
<path d="M540 1260 c-183 -28 -368 -164 -453 -334 -16 -31 -27 -64 -25 -73 5
-25 60 -49 159 -69 203 -41 410 19 553 161 70 69 143 176 152 223 6 30 4 33
-37 51 -85 38 -245 56 -349 41z"/>
<path d="M2030 1260 c-44 -4 -100 -17 -135 -31 -53 -22 -60 -28 -58 -51 3 -44
81 -167 148 -232 75 -73 193 -139 291 -162 125 -29 348 -3 419 50 20 15 19 16
-20 93 -28 55 -62 100 -115 154 -147 148 -294 198 -530 179z"/>
<path d="M1105 917 c-120 -63 -227 -173 -289 -297 l-48 -95 4 -175 c3 -173 3
-176 35 -243 l32 -67 56 25 c186 82 331 266 370 470 16 84 14 153 -11 263 -11
50 -57 163 -67 162 -1 0 -38 -19 -82 -43z"/>
<path d="M1547 902 c-37 -86 -51 -156 -50 -267 0 -144 35 -251 121 -369 47
-65 151 -149 237 -192 l69 -35 28 54 c15 30 34 92 44 138 58 289 -96 583 -370
704 l-54 24 -25 -57z"/>
</g>
</svg>
